<svg width="280" height="64" viewBox="0 0 280 64" fill="none" xmlns="http://www.w3.org/2000/svg">
<mask id="mask0_472_4271" style="mask-type:luminance" maskUnits="userSpaceOnUse" x="0" y="12" width="88" height="40">
<path d="M87.654 12.166H0V51.8354H87.654V12.166Z" fill="white"/>
</mask>
<g mask="url(#mask0_472_4271)">
<path d="M85.9326 42.2266H43.1815C42.2307 42.2266 41.46 43.0029 41.46 43.9606V50.0303C41.46 50.9881 42.2307 51.7645 43.1815 51.7645H85.9326C86.8833 51.7645 87.6541 50.9881 87.6541 50.0303V43.9606C87.6541 43.0029 86.8833 42.2266 85.9326 42.2266Z" fill="#FDE235"/>
<path d="M31.4467 13.3927L1.21711 43.8446C0.544817 44.5219 0.544817 45.62 1.21711 46.2971L5.47766 50.589C6.14995 51.2662 7.23996 51.2662 7.91225 50.589L38.1418 20.1371C38.8141 19.4598 38.8141 18.3618 38.1418 17.6846L33.8813 13.3927C33.209 12.7155 32.119 12.7155 31.4467 13.3927Z" fill="#101323"/>
<path d="M51.1723 13.3927L20.9428 43.8446C20.2704 44.5219 20.2704 45.62 20.9428 46.2971L25.2032 50.589C25.8755 51.2662 26.9656 51.2662 27.6379 50.589L57.8675 20.1371C58.5398 19.4598 58.5398 18.3618 57.8675 17.6846L53.6069 13.3927C52.9346 12.7155 51.8446 12.7155 51.1723 13.3927Z" fill="#101323"/>
</g>
<path d="M116.812 51.7557C114.019 51.7557 111.614 51.1234 109.598 49.8587C107.594 48.5815 106.053 46.8222 104.976 44.5807C103.899 42.3393 103.36 39.7723 103.36 36.8797C103.36 33.9496 103.911 31.3638 105.014 29.1225C106.116 26.8685 107.669 25.1091 109.673 23.8445C111.677 22.5797 114.038 21.9473 116.756 21.9473C118.948 21.9473 120.901 22.3544 122.617 23.1682C124.333 23.9697 125.717 25.0967 126.769 26.5491C127.834 28.0017 128.466 29.6985 128.667 31.6394H123.2C122.899 30.2869 122.21 29.1225 121.133 28.1457C120.069 27.169 118.641 26.6807 116.85 26.6807C115.284 26.6807 113.913 27.0939 112.735 27.9204C111.57 28.7343 110.662 29.8988 110.011 31.4139C109.36 32.9166 109.034 34.6947 109.034 36.7483C109.034 38.8519 109.354 40.6676 109.992 42.1953C110.631 43.7229 111.533 44.9063 112.698 45.7453C113.875 46.5843 115.259 47.0037 116.85 47.0037C117.914 47.0037 118.879 46.8096 119.743 46.4214C120.62 46.0207 121.352 45.4509 121.941 44.7122C122.542 43.9734 122.962 43.0844 123.2 42.0451H128.667C128.466 43.9108 127.859 45.5762 126.845 47.0413C125.83 48.5064 124.471 49.6584 122.768 50.4973C121.077 51.3363 119.092 51.7557 116.812 51.7557ZM143.073 51.8122C141.243 51.8122 139.59 51.4741 138.113 50.7979C136.634 50.1092 135.464 49.1136 134.599 47.8114C133.747 46.5091 133.321 44.9126 133.321 43.0217C133.321 41.394 133.634 40.0541 134.261 39.0023C134.887 37.9504 135.732 37.1177 136.797 36.504C137.861 35.8905 139.052 35.4273 140.367 35.1142C141.681 34.8012 143.022 34.5631 144.387 34.4004C146.116 34.2 147.518 34.0373 148.596 33.912C149.673 33.7744 150.456 33.5551 150.944 33.2547C151.433 32.9542 151.676 32.4658 151.676 31.7896V31.6582C151.676 30.0177 151.213 28.7468 150.286 27.8453C149.372 26.9436 148.007 26.4928 146.191 26.4928C144.3 26.4928 142.809 26.9124 141.72 27.7512C140.642 28.5777 139.897 29.4982 139.484 30.5124L134.204 29.3103C134.831 27.5573 135.745 26.1423 136.948 25.0654C138.162 23.9759 139.558 23.187 141.138 22.6987C142.715 22.1978 144.374 21.9473 146.116 21.9473C147.268 21.9473 148.489 22.0851 149.78 22.3606C151.081 22.6236 152.297 23.1119 153.423 23.8257C154.564 24.5395 155.497 25.5599 156.223 26.8872C156.95 28.202 157.313 29.9114 157.313 32.015V51.1735H151.827V47.2291H151.601C151.238 47.9554 150.694 48.6692 149.967 49.3704C149.24 50.0716 148.308 50.6539 147.167 51.1172C146.027 51.5805 144.662 51.8122 143.073 51.8122ZM144.293 47.3043C145.846 47.3043 147.174 46.9975 148.276 46.3838C149.391 45.7703 150.236 44.969 150.813 43.9797C151.401 42.978 151.695 41.9073 151.695 40.7678V37.0488C151.495 37.2492 151.106 37.4369 150.531 37.6123C149.967 37.775 149.322 37.919 148.596 38.0443C147.868 38.1569 147.161 38.2634 146.473 38.3636C145.784 38.4513 145.207 38.5264 144.744 38.5891C143.655 38.7267 142.659 38.9584 141.757 39.2839C140.868 39.6095 140.154 40.079 139.615 40.6927C139.089 41.2937 138.826 42.0952 138.826 43.0968C138.826 44.4868 139.34 45.5386 140.367 46.2524C141.394 46.9536 142.702 47.3043 144.293 47.3043ZM186.419 29.3666L181.328 30.2681C181.115 29.617 180.777 28.9973 180.314 28.4087C179.863 27.8201 179.249 27.338 178.473 26.9624C177.695 26.5867 176.724 26.3989 175.56 26.3989C173.969 26.3989 172.641 26.7558 171.577 27.4696C170.513 28.1708 169.98 29.0786 169.98 30.193C169.98 31.1573 170.337 31.9336 171.051 32.5222C171.764 33.1107 172.918 33.5927 174.507 33.9684L179.092 35.0203C181.748 35.6338 183.726 36.5793 185.029 37.8565C186.332 39.1337 186.982 40.7928 186.982 42.834C186.982 44.562 186.481 46.1022 185.48 47.4545C184.491 48.7944 183.106 49.8462 181.328 50.6101C179.561 51.3739 177.514 51.7557 175.185 51.7557C171.953 51.7557 169.316 51.0671 167.275 49.6896C165.233 48.2997 163.981 46.3275 163.518 43.7731L168.947 42.9466C169.284 44.3616 169.98 45.4322 171.033 46.1585C172.084 46.8723 173.456 47.2291 175.146 47.2291C176.987 47.2291 178.459 46.8472 179.561 46.0834C180.664 45.3069 181.215 44.3616 181.215 43.2472C181.215 42.3456 180.877 41.5879 180.2 40.9744C179.536 40.3608 178.516 39.8975 177.138 39.5845L172.254 38.5138C169.561 37.9003 167.569 36.9236 166.279 35.5837C165.002 34.2439 164.363 32.5471 164.363 30.4936C164.363 28.7906 164.839 27.3005 165.79 26.0232C166.742 24.746 168.057 23.7506 169.735 23.0368C171.414 22.3105 173.337 21.9473 175.503 21.9473C178.622 21.9473 181.077 22.6236 182.868 23.9759C184.66 25.3158 185.842 27.1127 186.419 29.3666ZM205.596 51.7557C202.753 51.7557 200.304 51.1485 198.25 49.9339C196.209 48.7067 194.631 46.985 193.516 44.7685C192.413 42.5396 191.863 39.9288 191.863 36.9362C191.863 33.9809 192.413 31.3764 193.516 29.1225C194.631 26.8685 196.184 25.1091 198.176 23.8445C200.18 22.5797 202.522 21.9473 205.202 21.9473C206.83 21.9473 208.408 22.2166 209.937 22.755C211.464 23.2935 212.836 24.1387 214.05 25.2907C215.266 26.4427 216.223 27.9391 216.925 29.7798C217.626 31.608 217.977 33.8307 217.977 36.4477V38.4387H195.037V34.2314H212.472C212.472 32.7538 212.172 31.4453 211.57 30.3058C210.97 29.1537 210.124 28.2459 209.035 27.5823C207.957 26.9186 206.692 26.5867 205.239 26.5867C203.661 26.5867 202.284 26.9749 201.105 27.7512C199.942 28.5151 199.04 29.5169 198.401 30.7566C197.774 31.9837 197.462 33.3173 197.462 34.7573V38.0443C197.462 39.9727 197.799 41.6131 198.476 42.9654C199.165 44.3177 200.123 45.3508 201.35 46.0646C202.578 46.7659 204.011 47.1164 205.653 47.1164C206.717 47.1164 207.688 46.9662 208.565 46.6656C209.442 46.3526 210.199 45.8893 210.837 45.2757C211.476 44.6622 211.966 43.9045 212.303 43.0029L217.62 43.961C217.194 45.5262 216.431 46.8973 215.328 48.0743C214.238 49.2388 212.866 50.1467 211.213 50.7979C209.573 51.4365 207.7 51.7557 205.596 51.7557ZM229.828 12.7062V51.1735H224.209V12.7062H229.828ZM237.384 51.1735V22.323H243.002V51.1735H237.384ZM240.221 17.8714C239.245 17.8714 238.405 17.5459 237.704 16.8948C237.015 16.2311 236.671 15.4422 236.671 14.5281C236.671 13.6016 237.015 12.8126 237.704 12.1615C238.405 11.4978 239.245 11.166 240.221 11.166C241.198 11.166 242.032 11.4978 242.719 12.1615C243.422 12.8126 243.772 13.6016 243.772 14.5281C243.772 15.4422 243.422 16.2311 242.719 16.8948C242.032 17.5459 241.198 17.8714 240.221 17.8714ZM251.009 51.1735V12.7062H256.627V27H256.965C257.291 26.3989 257.76 25.7039 258.374 24.915C258.988 24.1263 259.839 23.4375 260.929 22.8489C262.019 22.2479 263.459 21.9473 265.25 21.9473C267.581 21.9473 269.66 22.5359 271.488 23.713C273.317 24.89 274.751 26.5867 275.79 28.8031C276.843 31.0195 277.368 33.6867 277.368 36.8046C277.368 39.9226 276.848 42.5961 275.809 44.825C274.769 47.0413 273.342 48.7505 271.526 49.9526C269.71 51.1422 267.636 51.737 265.307 51.737C263.553 51.737 262.12 51.4427 261.005 50.8542C259.903 50.2656 259.038 49.577 258.412 48.7881C257.785 47.9992 257.304 47.298 256.965 46.6844H256.496V51.1735H251.009ZM256.514 36.7483C256.514 38.7768 256.809 40.5549 257.398 42.0826C257.986 43.6103 258.838 44.8062 259.953 45.6702C261.067 46.5216 262.433 46.9474 264.048 46.9474C265.726 46.9474 267.13 46.5028 268.257 45.6139C269.383 44.7122 270.235 43.4913 270.812 41.9512C271.4 40.4109 271.694 38.6766 271.694 36.7483C271.694 34.8449 271.407 33.1357 270.83 31.6206C270.267 30.1054 269.415 28.9096 268.275 28.033C267.148 27.1565 265.74 26.7183 264.048 26.7183C262.42 26.7183 261.042 27.1377 259.915 27.9767C258.8 28.8157 257.955 29.9865 257.379 31.489C256.803 32.9917 256.514 34.7448 256.514 36.7483Z" fill="#101323"/>
</svg>
